<?xml version="1.0" encoding="UTF-8" standalone="no"?>
<svg id="svg2" xmlns:rdf="http://www.w3.org/1999/02/22-rdf-syntax-ns#" xmlns="http://www.w3.org/2000/svg" height="24" width="24" version="1.1" xmlns:cc="http://creativecommons.org/ns#" xmlns:dc="http://purl.org/dc/elements/1.1/" viewBox="0 0 24 24">
 <metadata id="metadata10">
  <rdf:RDF>
   <cc:Work rdf:about="">
    <dc:format>image/svg+xml</dc:format>
    <dc:type rdf:resource="http://purl.org/dc/dcmitype/StillImage"/>
    <dc:title/>
   </cc:Work>
  </rdf:RDF>
 </metadata>
 <path id="path7" d="m20.135 3.9297h-16.269c-0.64745 0-1.1621 0.52709-1.1621 1.1745v13.588c0 0.64745 0.51464 1.1745 1.1621 1.1745h16.269c0.64745 0 1.1621-0.52709 1.1621-1.1745v-13.588c0-0.64745-0.51464-1.1745-1.1621-1.1745zm-4.279 8.2052c-0.12451-0.14526-0.31543-0.25732-0.53124-0.25732-0.21167 0-0.36108 0.09961-0.53124 0.23657l-0.77611 0.65575c-0.16186 0.11621-0.29052 0.19507-0.47729 0.19507-0.17846 0-0.34033-0.0664-0.45654-0.17016-0.0415-0.03735-0.11621-0.10791-0.17846-0.17016l-2.2329-2.4155c-0.167-0.192-0.416-0.3122-0.6942-0.3122-0.27807 0-0.53539 0.13696-0.69726 0.32373l-5.2502 6.3334v-10.812c0.041503-0.28222 0.26147-0.48559 0.54369-0.48559h14.846c0.28637 0 0.51879 0.21167 0.53539 0.49804l0.01245 10.807-4.113-4.4284zm0.79271-1.5647c1.0998 0 1.9922-0.89232 1.9922-1.9922 0-1.0998-0.89232-1.9922-1.9922-1.9922-1.0998 0-1.9922 0.89232-1.9922 1.9922 0 1.0998 0.89232 1.9922 1.9922 1.9922z"/>
</svg>
